PathFileType	4	(X/Y/Z)	Kaydara	
DataRate	CameraRate	NumFrames	NumMarkers	Units	OrigDataRate	OrigDataStartFrame	OrigNumFrames	
240.00	240.00	4	72	mm	240.00	311	355	
Frame#	Time	Hips			RightUpLeg			RightLeg			RightFoot			RightFoot_End			LeftUpLeg			LeftLeg			LeftFoot			LeftFoot_End			Spine			Spine1			Spine2			Spine3			Neck			Head			Head_End			RightShoulder			RightArm			RightForeArm			RightHand			RightHandThumb1			RightHandThumb2			RightHandThumb3			RightHandThumb3_End			RightInHandIndex			RightHandIndex1			RightHandIndex2			RightHandIndex3			RightHandIndex3_End			RightInHandMiddle			RightHandMiddle1			RightHandMiddle2			RightHandMiddle3			RightHandMiddle3_End			RightInHandRing			RightHandRing1			RightHandRing2			RightHandRing3			RightHandRing3_End			RightInHandPinky			RightHandPinky1			RightHandPinky2			RightHandPinky3			RightHandPinky3_End			LeftShoulder			LeftArm			LeftForeArm			LeftHand			LeftHandThumb1			LeftHandThumb2			LeftHandThumb3			LeftHandThumb3_End			LeftInHandIndex			LeftHandIndex1			LeftHandIndex2			LeftHandIndex3			LeftHandIndex3_End			LeftInHandMiddle			LeftHandMiddle1			LeftHandMiddle2			LeftHandMiddle3			LeftHandMiddle3_End			LeftInHandRing			LeftHandRing1			LeftHandRing2			LeftHandRing3			LeftHandRing3_End			LeftInHandPinky			LeftHandPinky1			LeftHandPinky2			LeftHandPinky3			LeftHandPinky3_End			
		X1	Y1	Z1	X2	Y2	Z2	X3	Y3	Z3	X4	Y4	Z4	X5	Y5	Z5	X6	Y6	Z6	X7	Y7	Z7	X8	Y8	Z8	X9	Y9	Z9	X10	Y10	Z10	X11	Y11	Z11	X12	Y12	Z12	X13	Y13	Z13	X14	Y14	Z14	X15	Y15	Z15	X16	Y16	Z16	X17	Y17	Z17	X18	Y18	Z18	X19	Y19	Z19	X20	Y20	Z20	X21	Y21	Z21	X22	Y22	Z22	X23	Y23	Z23	X24	Y24	Z24	X25	Y25	Z25	X26	Y26	Z26	X27	Y27	Z27	X28	Y28	Z28	X29	Y29	Z29	X30	Y30	Z30	X31	Y31	Z31	X32	Y32	Z32	X33	Y33	Z33	X34	Y34	Z34	X35	Y35	Z35	X36	Y36	Z36	X37	Y37	Z37	X38	Y38	Z38	X39	Y39	Z39	X40	Y40	Z40	X41	Y41	Z41	X42	Y42	Z42	X43	Y43	Z43	X44	Y44	Z44	X45	Y45	Z45	X46	Y46	Z46	X47	Y47	Z47	X48	Y48	Z48	X49	Y49	Z49	X50	Y50	Z50	X51	Y51	Z51	X52	Y52	Z52	X53	Y53	Z53	X54	Y54	Z54	X55	Y55	Z55	X56	Y56	Z56	X57	Y57	Z57	X58	Y58	Z58	X59	Y59	Z59	X60	Y60	Z60	X61	Y61	Z61	X62	Y62	Z62	X63	Y63	Z63	X64	Y64	Z64	X65	Y65	Z65	X66	Y66	Z66	X67	Y67	Z67	X68	Y68	Z68	X69	Y69	Z69	X70	Y70	Z70	X71	Y71	Z71	X72	Y72	Z72	

311	1.292	921.0129	906.651	56.2195	917.4334408104194	858.3715487322727	-21.30247810538145	851.9819933357561	447.7362048411485	-67.59153324364655	962.4767067535508	95.68015888811348	-194.9254545855435	890.668420401675	14.625258353304615	-37.42594560080611	930.6069243537534	925.987974409271	145.97532556625038	880.1918479778442	526.3713768883246	260.10664940530063	782.2894411510922	96.71913894831215	290.3612687663934	666.4195991786855	3.978035829867121	170.0402753490497	893.7651836052189	1036.9683153798296	3.9813326447600232	843.3913672848778	1110.5128103493919	-34.61008414039436	784.5905360078907	1182.4309517689833	-74.08330054803542	719.0618684154322	1243.2799874633347	-110.46987141639698	648.3564373107803	1307.8328896835685	-148.67584072264762	583.6132486518086	1367.1058006783126	-182.1016669353713	458.09215390836334	1459.7418663706208	-212.1899984313172	666.9701013344613	1268.5311135513125	-155.57208645712433	633.3947217421236	1204.335621660448	-199.14791168673446	644.8316689396104	1079.2743986984121	-53.66351418311811	601.6876050199958	1055.6711873533814	24.25134889719309	613.1480950471605	1077.2239792549117	13.658303609190902	615.645776916572	1077.4568627296574	17.902381386819478	615.8900862662105	1074.7717218337168	23.369761226791937	614.8147565034499	1070.0974209498936	30.07646638769022	609.431306797305	1070.551163819583	20.87823535283889	613.1600018255862	1075.988906072231	28.55813892386707	612.5969618149766	1071.4581897045452	38.24169781937696	611.4421125475455	1065.974856261812	44.00167849886985	609.9433761316677	1059.637604149556	48.59364617674555	605.0850655205729	1062.2224270802078	27.648884515056636	606.3719374369689	1063.0235879514696	38.80064112377257	605.1680271561993	1056.9526913866225	50.24120847433797	603.4918472004065	1049.7964385643609	57.60976191485992	601.7144404061207	1042.5994228085542	62.838067064861704	601.9423263046606	1056.2663021297842	32.21025167192869	600.434881217361	1052.009687491412	46.08766476817782	598.7807180095318	1045.5643779531672	56.93521552014706	596.842719219442	1038.0488137377533	64.5079282774602	595.0192914600093	1030.991418093148	69.64427702623775	598.0306758522364	1048.7170180078085	37.45068349550668	594.3150333260526	1040.38500253236	53.32453183910851	592.0532464165452	1033.4416964033257	63.31704124803359	590.1863014912597	1027.0977361408932	69.47245833001958	588.3101313934676	1020.3498958093561	74.38606051123303	677.5695071010796	1305.3724324014772	-115.86186734170381	716.7731696224523	1349.9815659587457	-32.013662996487156	759.3169825909724	1131.9859216901925	-15.812154109732173	665.9724460387563	993.49198990342	48.107965040266734	661.195133062093	1014.1174779015116	48.78625076381245	664.1046605736706	1012.6725083855977	54.60219748715017	668.1822701670039	1008.0271512296772	59.174428191036434	673.3365218051579	1001.0413848359677	63.432668054707264	667.9721466824635	1004.296945965035	50.392967050961566	679.2368357518604	1001.5420478346243	57.236740174405085	687.8154322380575	992.5086707600599	63.74486177927961	691.009489140286	986.1646423899824	67.79280736950754	692.2102163007329	980.4226436159854	71.14453422973678	673.1947271319912	994.1568806623143	51.65750891743093	687.0066542803902	985.9870856232798	59.01621651908732	697.0211041371392	974.7919651857068	66.26470770064824	701.1882050493214	966.4961019006365	71.2188691081562	702.6544581194662	959.9011964090129	74.92052139558719	676.6051723768394	987.1111401715859	52.36332208448942	691.9677449391343	973.8133697156583	59.532992404994545	701.342459824903	962.7005258992154	65.989432971176	705.7050547548849	953.978845321284	70.84173130534661	707.2462921039205	947.4369426840285	74.3571036189562	680.1453931586024	978.6928454003792	53.08054292293847	696.4493499113951	961.466278382104	60.057453929874335	704.8971737068962	950.5109966914395	65.41263544684612	708.5344166027573	943.1545522388658	69.04146215079997	710.1616431879265	936.7869624481604	72.2070422546817
312	1.296	921.0129	906.651	56.2195	917.0888346370056	858.2308957755159	-21.398354760724683	851.7128704151809	447.5590333315545	-67.53180896626867	962.6677301423515	95.62966710129108	-195.07455271376799	890.8737277500608	14.556231661709628	-37.57755770181032	930.9440134152019	926.1288842009789	146.07624393830545	880.5723378047607	526.5350582658754	260.3102716311448	782.7673645923272	96.79957817718247	290.2933776270527	666.9728915625727	3.9776741149749038	169.95313899365829	893.8076476732292	1036.9718973819415	3.963597493872589	843.3984909046558	1110.5679487999944	-34.48659852818188	784.5570486979747	1182.5580946488378	-73.77022838127064	718.9865945006793	1243.5099366403006	-109.90780563350602	648.237103829108	1308.1699261506349	-147.8486185661932	583.4560531737708	1367.535722948961	-181.0339750965207	457.92259988083197	1460.2133206607787	-210.94192103160358	666.6853848389273	1268.7551836697737	-154.8149850308474	632.5583050026785	1204.1953379373465	-198.00488977884024	644.1244197779	1079.899730676973	-51.65100743314944	600.6093422241963	1057.2112067470757	27.519204808598076	612.1128770301428	1078.8603340484758	16.97388602081223	614.6911694135224	1079.1015828317336	21.3525874022296	614.9829070414794	1076.4244621730375	26.927018727368566	613.9396616412869	1071.7587341633596	33.73432942724176	608.3626132159505	1072.2157859257368	24.2425579616948	612.1004507731793	1077.802010078245	32.133345019800934	611.576855913857	1073.3128311979913	41.98107790653723	610.4710862193789	1067.808121527644	47.825513805351214	609.0295225216072	1061.421318990157	52.47551193000511	603.9939280317997	1063.884914225725	31.042845211638	605.2775719645654	1064.8297604568681	42.41631019921182	604.1137642027079	1058.8033562748094	54.03927510138332	602.4953709707274	1051.6209053275875	61.51128312401152	600.7798457980456	1044.3694750173318	66.80383082346462	600.8347139500606	1057.924163870357	35.61972246825839	599.3089246656307	1053.7942781883678	49.70914774871196	597.6867181149371	1047.3866661324732	60.71865375981688	595.8028638729353	1039.8452447862842	68.39272402445091	594.0368471963745	1032.7364048791712	73.59022496731502	596.9068837074635	1050.3599646942664	40.87229267053997	593.1631383556193	1042.1372849392824	56.94798420387355	590.9223324679517	1035.2219005701636	67.07389968368676	589.0926579842073	1028.8579744365986	73.30504341730808	587.2660651454563	1022.0639451485055	78.27385279936095	677.6534847659864	1305.7530380280898	-115.14686952258434	717.4058877184156	1350.9178789096968	-31.38225405304343	759.8192271293722	1132.7916539143346	-14.154657234604054	665.3742519023424	994.418796721255	50.953118559777316	660.6562688314742	1015.1502181439955	51.760401662642494	663.6370110438711	1013.7832258785388	57.77676464392352	667.7786551949196	1009.1868440858992	62.48556672039612	672.998659753337	1002.2373698981158	66.85510752076425	667.4955801668618	1005.3232658832909	53.36217924764844	678.9778445739258	1002.688193353541	60.410612151696256	687.6808502362917	993.7227474204055	67.0934193236708	690.9087670294285	987.4074900524425	71.25422816731442	692.1081952800503	981.6802237333317	74.70225975865043	672.7486128236706	995.1638347024171	54.61299470635146	686.7892368978007	987.1004558597234	62.163883682440904	696.9427081961921	975.9764952458816	69.6005606379241	701.1522381359089	967.7139276198725	74.68972285532605	702.617833170262	961.1344564351981	78.49617314571168	676.1754201091161	988.1015110227671	55.30357469275909	691.7583699595407	974.8851328634579	62.631364042103215	701.2572405741436	963.8311163131651	69.24904235925328	705.6623472950595	955.1398543593842	74.23008176264892	707.203716635008	948.6116616438211	77.84329118391342	679.7249619748738	979.6594765971022	55.999729736054896	696.2382434337851	962.4934540829521	63.107717637134996	704.7891802761083	951.5799351488184	68.58696274814758	708.4592226165066	944.2430914092772	72.30725891338281	710.0875901017243	937.8861563794186	75.5581155465304
313	1.3	921.0129	906.651	56.2195	916.7296320149997	858.0923837033884	-21.49069157866093	851.4420252173047	447.38333216521306	-67.47815599804788	962.8673955577201	95.58903042920741	-195.2403145791146	891.0961330826882	14.49534401422919	-37.74290992655911	931.2937765162122	926.2672068612266	146.17334391124425	880.9726684755622	526.6929440019626	260.5022294796827	782.7598080120827	97.00282244575004	290.2547963608943	667.0418087459152	4.104816508645309	169.89069332740175	893.8591924450045	1036.9775109228488	3.9470809549286607	843.4189776031113	1110.6234642172628	-34.372354961517075	784.5395180256195	1182.6815947197647	-73.48095364287653	718.9262320370638	1243.7279668327342	-109.38821019743743	648.1311128670637	1308.4825691511883	-147.09028329989516	583.3083541565765	1367.9260341564031	-180.06276974418978	457.70822521952437	1460.564690641745	-209.8223235292368	666.4241561577467	1268.9567227273049	-154.12205258138448	631.7486434322567	1204.031629276558	-196.92466764330504	643.4433785196277	1080.4758070954197	-49.713242107654736	599.5700853241144	1058.678301015955	30.706881757917728	611.109133587727	1080.4303605336845	20.210513738863806	613.7624151618277	1080.6861662181616	24.731547455286915	614.097535808467	1078.021354826462	30.418537068538953	613.08290108543	1073.3677644913244	37.33119322165888	607.323897989852	1073.8148097776896	27.528054094574227	611.0582340822418	1079.5599949598945	35.63488376449988	610.5673003707678	1075.118800308321	45.6535075595984	609.5085633874971	1069.595419234367	51.5877327167502	608.1239747435554	1063.1604398136278	56.300954138839835	602.9329675545753	1065.4813692874113	34.35838381104214	604.201155118906	1066.5798850357148	45.95881229492576	603.0701055321404	1060.6049037851965	57.771543842737934	601.5070888512964	1053.3994769501383	65.353446800357	599.8532117884422	1046.0951243700608	70.715947131277	599.75771083575	1059.5154324615567	38.95089461231059	598.2029365159354	1055.5207446094553	53.25706861138008	596.606368180406	1049.1567488947787	64.43497034129045	594.7743685502072	1041.592533516754	72.21665720435269	593.0655985822716	1034.4336283937175	77.48067901698938	595.8147647998222	1051.9352757963165	44.21584302950742	592.0337231507672	1043.8291047217062	60.497772649704885	589.8090282786999	1036.9461670119513	70.76226389879916	588.0150377046338	1030.5644228882018	77.07372059059581	586.2379255353792	1023.7253517326926	82.10249316502255	677.7414461219198	1306.115849027804	-114.48751946937142	718.0435660399783	1351.8127417666092	-30.786715740760247	760.2834160562883	1133.5604976874695	-12.492589976704798	664.7220255984531	995.3342873433619	53.811548988820654	660.0634167853236	1016.1730694425706	54.7423182841353	663.1135555393362	1014.8906045085889	60.95976737128763	667.3179680375447	1010.3476838898563	65.80693336287244	672.602645286755	1003.4381422019418	70.2903694705907	666.9651617727625	1006.3389170346793	56.34307011166322	678.6644312035235	1003.8266511937428	63.59972177815588	687.4904432974995	994.9340782796745	70.46110995035619	690.7508687781745	988.652083398378	74.73665065975572	691.947544408156	982.9442439311534	78.28213763144326	672.2485675881126	996.1599097647041	57.58365441973831	686.5172861839865	988.2057171556282	65.33208327978923	696.8082590258193	977.1582692742786	72.96164006931564	701.0585783173342	968.9343945684753	78.18826305158834	702.5219329221579	962.3754699944401	82.1008946125968	675.6917313739968	989.0807339327727	58.26137516793247	691.4945203560861	975.9479122170632	65.75414201900354	701.1162262881776	964.9573490370906	72.53759083846006	705.5622461252144	956.3016982822236	77.64998105737105	707.1022571592932	949.7920003741992	81.36243092570463	679.2505023754081	980.6147859945007	58.93914520657266	695.972602875212	963.5111030564278	66.18611733109212	704.6255724275961	952.6429759326879	71.79375233331902	708.3272398655821	945.329478490071	75.60774489618024	709.9554332583245	938.9874359515577	78.94529426635636
314	1.304	921.0129	906.651	56.2195	916.3630939194753	857.9543854060822	-21.5800424416988	851.1709717715357	447.2075494277073	-67.42402752969072	963.0731376175684	95.55755732443184	-195.4217559833888	891.3295160666707	14.442557393101962	-37.92228516503575	931.6496284760287	926.4049412066339	146.2677549035012	881.3844291817247	526.8504732335234	260.69396747902573	782.4603521093331	97.28583655892689	290.2527270307491	666.8135599967258	4.316428018016195	169.86595300738222	893.9164671598425	1036.9834907408128	3.929209286481856	843.4499273510593	1110.6638273284345	-34.297554333827094	784.5354463240944	1182.76779988084	-73.28097388751306	718.8780507727404	1243.8771094338786	-109.02041418282377	648.0332600370918	1308.6910233650506	-146.54844867035558	583.1660016934809	1368.1817918661566	-179.36933975656578	457.49382817619767	1460.75445118092	-209.06496780136547	666.1914370621147	1269.056715163514	-153.6264694710785	630.972876839345	1203.7639113902694	-196.04181360646203	642.7956839216736	1080.9388234950034	-47.97641269562621	598.6080036611477	1059.9978149005847	33.69622051251187	610.1823707380138	1081.8526546827782	23.247874852686007	612.9125391109723	1082.1236041133504	27.90888275628177	613.2927710471406	1079.471352635684	33.70688265195823	612.3085382817058	1074.8299323071715	40.72364729445524	606.3635299283214	1075.2652984641104	30.61460819352358	610.0980015080532	1081.1678918762668	38.93614890515774	609.642644839468	1076.7743869603762	49.12391524024662	608.6323508538933	1071.2328513447262	55.146445944940226	607.3056153359009	1064.7506197035034	59.92138314551683	601.951367041594	1066.9288809896664	37.47517188949376	603.2081903036833	1068.1793402257663	49.301382129360775	602.113204477122	1062.2554248845659	61.302002306143905	600.6073084151667	1055.0276270215656	68.99204327680928	599.0160814234953	1047.6713342953765	74.4228433060204	598.7606895038375	1060.957499469247	42.083506733891056	597.1811284386247	1057.0962230771347	56.6055501109738	595.6131949029443	1050.7754770509428	67.95025561770669	593.8348038171666	1043.1890183516755	75.83785341082506	592.1842515689276	1035.9809672404667	81.16687166151563	594.8032409948071	1053.361202221062	47.3610068598006	590.98911914439	1045.369746338417	63.848511341861354	588.783102853271	1038.5189238600742	74.25037295306082	587.0261642239943	1032.1197341675365	80.64091363530854	585.2994364344665	1025.2364140383165	85.72832882861647	677.8192995889001	1306.3957782740604	-114.0203406886116	718.6699084457026	1352.6175072908832	-30.37892989528382	760.7011705893549	1134.1912993530484	-11.109247052671007	664.0323948843597	996.1095329634103	56.390471285095636	659.4326014446262	1017.0579045194042	57.439640593649685	662.5508998272344	1015.8663946691474	63.857927203803875	666.8172702093899	1011.3813236942759	68.84430655756329	672.166001197861	1004.5153011647124	73.44324357922962	666.3970045908688	1007.2160545261369	59.042419053753456	678.3126155269583	1004.8307193943031	66.5089585736681	687.260765218942	996.0161196953969	73.55123033355893	690.5529318726169	989.771549132436	77.94258251431425	691.7460710749658	984.0872111856133	81.58619230930461	671.710942558266	997.0171782771146	60.27559743733732	686.2071967381403	989.1760652391731	68.22472808073664	696.6347354154756	978.2106655084657	76.05004846623724	700.9249182967677	970.0304703146579	81.41561777488407	702.38517224061	963.4965640665241	85.43522899985054	675.1705736084289	989.920824794138	60.94240797537401	691.192833020991	976.8747159597394	68.60464934798533	700.9365563322791	965.9523685247826	75.55676836245108	705.422645987127	957.3371017853569	80.80214225451729	706.9604851943058	950.8501070300848	84.61469118510028	678.7387005438134	981.4306756958886	61.604016341766844	695.6693669072135	964.3919439904065	68.99547236486467	704.4237748833382	953.5729222817315	74.73437438920156	708.1564622189516	946.2862258012025	78.64352535628646	709.7837718502444	939.9627454878579	82.06868405005918
